<?xml version="1.0" encoding="UTF-8" standalone="no"?>
<!-- Created with Inkscape (http://www.inkscape.org/) -->

<svg
   xmlns:dc="http://purl.org/dc/elements/1.1/"
   xmlns:cc="http://creativecommons.org/ns#"
   xmlns:rdf="http://www.w3.org/1999/02/22-rdf-syntax-ns#"
   xmlns:svg="http://www.w3.org/2000/svg"
   xmlns="http://www.w3.org/2000/svg"
   xmlns:xlink="http://www.w3.org/1999/xlink"
   xmlns:sodipodi="http://sodipodi.sourceforge.net/DTD/sodipodi-0.dtd"
   xmlns:inkscape="http://www.inkscape.org/namespaces/inkscape"
   width="64"
   height="64"
   id="svg3559"
   version="1.1"
   inkscape:version="0.92.5 (2060ec1f9f, 2020-04-08)"
   sodipodi:docname="body.svg"
   viewBox="0 0 64 64">
  <defs
     id="defs3561">
    <linearGradient
       id="linearGradient4383-3"
       inkscape:collect="always">
      <stop
         id="stop73188"
         offset="0"
         style="stop-color:#3465a4;stop-opacity:1" />
      <stop
         id="stop73190"
         offset="1"
         style="stop-color:#729fcf;stop-opacity:1" />
    </linearGradient>
    <linearGradient
       inkscape:collect="always"
       xlink:href="#linearGradient4383-3"
       id="linearGradient4389-0"
       x1="27.243532"
       y1="54.588112"
       x2="21.243532"
       y2="30.588112"
       gradientUnits="userSpaceOnUse"
       gradientTransform="translate(-1.243533,-2.588112)" />
    <linearGradient
       inkscape:collect="always"
       xlink:href="#linearGradient4393-9"
       id="linearGradient4399-7"
       x1="48.714352"
       y1="45.585785"
       x2="40.714352"
       y2="24.585787"
       gradientUnits="userSpaceOnUse"
       gradientTransform="translate(1.2856487,1.4142136)" />
    <linearGradient
       inkscape:collect="always"
       id="linearGradient4393-9">
      <stop
         style="stop-color:#204a87;stop-opacity:1"
         offset="0"
         id="stop4395-8" />
      <stop
         style="stop-color:#3465a4;stop-opacity:1"
         offset="1"
         id="stop4397-1" />
    </linearGradient>
    <linearGradient
       inkscape:collect="always"
       xlink:href="#linearGradient73194"
       id="linearGradient4389"
       x1="20.243532"
       y1="37.588112"
       x2="17.243532"
       y2="27.588112"
       gradientUnits="userSpaceOnUse"
       gradientTransform="translate(-1.243533,-2.588112)" />
    <linearGradient
       id="linearGradient73194"
       inkscape:collect="always">
      <stop
         id="stop73202"
         offset="0"
         style="stop-color:#c4a000;stop-opacity:1" />
      <stop
         id="stop73204"
         offset="1"
         style="stop-color:#fce94f;stop-opacity:1" />
    </linearGradient>
    <linearGradient
       inkscape:collect="always"
       xlink:href="#linearGradient73194"
       id="linearGradient69056"
       gradientUnits="userSpaceOnUse"
       gradientTransform="translate(-1.243533,-2.588112)"
       x1="27.243532"
       y1="54.588112"
       x2="22.243532"
       y2="40.588112" />
    <linearGradient
       inkscape:collect="always"
       xlink:href="#linearGradient73208"
       id="linearGradient4399"
       x1="48.714352"
       y1="45.585785"
       x2="46.714352"
       y2="34.585785"
       gradientUnits="userSpaceOnUse"
       gradientTransform="translate(1.2856487,1.4142136)" />
    <linearGradient
       inkscape:collect="always"
       id="linearGradient73208">
      <stop
         style="stop-color:#c4a000;stop-opacity:1"
         offset="0"
         id="stop73210" />
      <stop
         style="stop-color:#edd400;stop-opacity:1"
         offset="1"
         id="stop73212" />
    </linearGradient>
    <linearGradient
       inkscape:collect="always"
       xlink:href="#linearGradient73208"
       id="linearGradient69042"
       gradientUnits="userSpaceOnUse"
       gradientTransform="translate(-12.714351,-17.585786)"
       x1="48.714352"
       y1="45.585785"
       x2="46.714352"
       y2="35.585785" />
    <linearGradient
       id="linearGradient3057">
      <stop
         style="stop-color:#8ae234;stop-opacity:1"
         offset="0.0000000"
         id="stop3059" />
      <stop
         style="stop-color:#4e9a06;stop-opacity:1"
         offset="1.0000000"
         id="stop3061" />
    </linearGradient>
    <filter
       inkscape:label="Blend"
       inkscape:menu="Fill and Transparency"
       inkscape:menu-tooltip="Adds a colorizable opaque background"
       style="color-interpolation-filters:sRGB;"
       id="filter971">
      <feFlood
         result="result1"
         flood-color="rgb(255,255,255)"
         flood-opacity="1"
         id="feFlood959" />
      <feImage
         xlink:href=""
         result="result2"
         id="feImage961" />
      <feBlend
         result="result4"
         in2="result1"
         mode="multiply"
         id="feBlend963" />
      <feMerge
         result="fbSourceGraphic"
         id="feMerge969">
        <feMergeNode
           in="result1"
           id="feMergeNode965" />
        <feMergeNode
           in="SourceGraphic"
           id="feMergeNode967" />
      </feMerge>
      <feColorMatrix
         result="fbSourceGraphicAlpha"
         in="fbSourceGraphic"
         values="0 0 0 -1 0 0 0 0 -1 0 0 0 0 -1 0 0 0 0 1 0"
         id="feColorMatrix877" />
      <feBlend
         in2="BackgroundImage"
         id="feBlend879"
         mode="multiply"
         result="fbSourceGraphic"
         in="fbSourceGraphic" />
      <feColorMatrix
         result="fbSourceGraphicAlpha"
         in="fbSourceGraphic"
         values="0 0 0 -1 0 0 0 0 -1 0 0 0 0 -1 0 0 0 0 1 0"
         id="feColorMatrix881" />
      <feBlend
         in2="BackgroundImage"
         id="feBlend883"
         mode="multiply"
         result="fbSourceGraphic"
         in="fbSourceGraphic" />
      <feColorMatrix
         result="fbSourceGraphicAlpha"
         in="fbSourceGraphic"
         values="0 0 0 -1 0 0 0 0 -1 0 0 0 0 -1 0 0 0 0 1 0"
         id="feColorMatrix885" />
      <feBlend
         in2="BackgroundImage"
         id="feBlend887"
         mode="multiply"
         result="blend"
         in="fbSourceGraphic" />
    </filter>
  </defs>
  <sodipodi:namedview
     id="base"
     pagecolor="#ffffff"
     bordercolor="#666666"
     borderopacity="1.0"
     inkscape:pageopacity="0.0"
     inkscape:pageshadow="2"
     inkscape:zoom="13.171875"
     inkscape:cx="14.045077"
     inkscape:cy="32"
     inkscape:current-layer="layer1"
     showgrid="true"
     inkscape:document-units="px"
     inkscape:grid-bbox="true"
     inkscape:window-width="1920"
     inkscape:window-height="1031"
     inkscape:window-x="0"
     inkscape:window-y="0"
     inkscape:window-maximized="1"
     inkscape:snap-global="true">
    <inkscape:grid
       type="xygrid"
       id="grid3007"
       empspacing="4"
       visible="true"
       enabled="true"
       snapvisiblegridlinesonly="true"
       spacingx="0.5"
       spacingy="0.5" />
  </sodipodi:namedview>
  <metadata
     id="metadata3564">
    <rdf:RDF>
      <cc:Work
         rdf:about="">
        <dc:format>image/svg+xml</dc:format>
        <dc:type
           rdf:resource="http://purl.org/dc/dcmitype/StillImage" />
        <dc:title />
        <dc:title>Path-Stock</dc:title>
        <dc:date>2015-07-04</dc:date>
        <dc:relation>http://www.freecadweb.org/wiki/index.php?title=Artwork</dc:relation>
        <dc:publisher>
          <cc:Agent>
            <dc:title>FreeCAD</dc:title>
          </cc:Agent>
        </dc:publisher>
        <dc:identifier>FreeCAD/src/Mod/Path/Gui/Resources/icons/Path-Stock.svg</dc:identifier>
        <dc:rights>
          <cc:Agent>
            <dc:title>FreeCAD LGPL2+</dc:title>
          </cc:Agent>
        </dc:rights>
        <cc:license>https://www.gnu.org/copyleft/lesser.html</cc:license>
        <dc:contributor>
          <cc:Agent>
            <dc:title>[agryson] Alexander Gryson</dc:title>
          </cc:Agent>
        </dc:contributor>
      </cc:Work>
    </rdf:RDF>
  </metadata>
  <g
     id="layer1"
     inkscape:label="Layer 1"
     inkscape:groupmode="layer">
    <g
       transform="translate(0,1.3977046e-5)"
       id="g7553">
      <path
         style="fill:url(#linearGradient4389);fill-opacity:1;fill-rule:nonzero;stroke:#302b00;stroke-width:2;stroke-linejoin:round;stroke-miterlimit:4;stroke-dasharray:none"
         d="M 9,35 V 21 l 14,5 v 14 z"
         id="path69052"
         inkscape:connector-curvature="0"
         sodipodi:nodetypes="ccccc" />
      <path
         sodipodi:nodetypes="ccccc"
         inkscape:connector-curvature="0"
         id="path4381"
         d="M 9,49 V 35 l 28,10 v 14 z"
         style="fill:url(#linearGradient69056);fill-opacity:1;fill-rule:nonzero;stroke:#302b00;stroke-width:2;stroke-linejoin:round;stroke-miterlimit:4;stroke-dasharray:none" />
      <path
         sodipodi:nodetypes="ccccc"
         inkscape:connector-curvature="0"
         id="path4391"
         d="M 37,59 V 45 L 55,28 v 13 z"
         style="fill:url(#linearGradient4399);fill-opacity:1;fill-rule:nonzero;stroke:#302b00;stroke-width:2;stroke-linejoin:round;stroke-miterlimit:4;stroke-dasharray:none" />
      <path
         sodipodi:nodetypes="ccccc"
         inkscape:connector-curvature="0"
         id="path4403"
         d="M 9,21 29,5 42,10 23,26 Z"
         style="fill:#fce94f;fill-opacity:1;fill-rule:nonzero;stroke:#302b00;stroke-width:2;stroke-linejoin:round;stroke-miterlimit:4;stroke-dasharray:none" />
      <path
         sodipodi:nodetypes="ccccc"
         inkscape:connector-curvature="0"
         id="path4381-7"
         d="M 11.008035,47.60627 11,38 l 24,8 0.0081,10.184812 z"
         style="fill:none;stroke:#fce94f;stroke-width:2;stroke-linejoin:miter;stroke-miterlimit:4;stroke-dasharray:none" />
      <path
         sodipodi:nodetypes="ccccc"
         inkscape:connector-curvature="0"
         id="path4391-0"
         d="M 39.005041,54.16825 39,46 53,32.5 l 0.0021,7.676847 z"
         style="fill:none;stroke:#edd400;stroke-width:2;stroke-linejoin:miter;stroke-miterlimit:4;stroke-dasharray:none" />
      <path
         style="fill:#fce94f;fill-opacity:1;fill-rule:nonzero;stroke:#302b00;stroke-width:2;stroke-linejoin:round;stroke-miterlimit:4;stroke-dasharray:none"
         d="M 23,40 42,23 55,28 37,45 Z"
         id="path69038"
         inkscape:connector-curvature="0"
         sodipodi:nodetypes="ccccc" />
      <path
         style="fill:url(#linearGradient69042);fill-opacity:1;fill-rule:nonzero;stroke:#302b00;stroke-width:2;stroke-linejoin:round;stroke-miterlimit:4;stroke-dasharray:none"
         d="M 23,40 V 26 L 42,10 v 13 z"
         id="path69040"
         inkscape:connector-curvature="0"
         sodipodi:nodetypes="ccccc" />
      <path
         style="fill:none;stroke:#edd400;stroke-width:2;stroke-linejoin:miter;stroke-miterlimit:4;stroke-dasharray:none"
         d="M 25,36 V 27 L 40,14 v 8 z"
         id="path69044"
         inkscape:connector-curvature="0"
         sodipodi:nodetypes="ccccc" />
      <path
         style="fill:none;stroke:#fce94f;stroke-width:2;stroke-linejoin:miter;stroke-miterlimit:4;stroke-dasharray:none"
         d="M 11.008,33.60627 11,24 21,27 v 10 z"
         id="path69048"
         inkscape:connector-curvature="0"
         sodipodi:nodetypes="ccccc" />
    </g>
    <text
       xml:space="preserve"
       style="font-style:normal;font-weight:normal;font-size:40px;line-height:1.25;font-family:sans-serif;letter-spacing:0px;word-spacing:0px;fill:#000000;fill-opacity:1;stroke:none"
       x="20"
       y="36"
       id="text856"><tspan
         sodipodi:role="line"
         id="tspan854"
         x="20"
         y="71.390625" /></text>
    <g
       id="g14"
       transform="translate(0,18)" />
    <g
       id="g16"
       transform="translate(0,18)" />
    <g
       id="g18"
       transform="translate(0,18)" />
    <g
       id="g20"
       transform="translate(0,18)" />
    <g
       id="g22"
       transform="translate(0,18)" />
    <g
       id="g24"
       transform="translate(0,18)" />
    <g
       id="g26"
       transform="translate(0,18)" />
    <g
       id="g28"
       transform="translate(0,18)" />
    <g
       id="g30"
       transform="translate(0,18)" />
    <g
       id="g32"
       transform="translate(0,18)" />
    <g
       id="g34"
       transform="translate(0,18)" />
    <g
       id="g36"
       transform="translate(0,18)" />
    <g
       id="g38"
       transform="translate(0,18)" />
    <g
       id="g40"
       transform="translate(0,18)" />
    <g
       id="g42"
       transform="translate(0,18)" />
    <g
       id="g12"
       style="fill:#ff0000"
       transform="matrix(0.03673498,0,0,0.03673498,13.632652,13.632464)">
      <g
         transform="matrix(0.1,0,0,-0.1,0,511)"
         id="g10"
         style="fill:#ff0000">
        <path
           d="M 1164.3,5001.4 C 683.2,4941.8 289.4,4603.3 138.3,4115.9 102.1,3994.5 100,3815.7 100,114 c 0,-3635.7 2.1,-3882.7 38.3,-4010.4 115,-421.5 453.4,-753.5 879.1,-862.1 117.1,-29.8 423.6,-34 2618.2,-34 2760.9,0 2626.8,-6.4 2909.9,142.6 383.2,202.2 632.2,617.3 632.2,1053.7 v 166 H 5078.9 c -1532.6,0 -2122.3,6.4 -2181.9,25.5 -110.7,31.9 -240.5,144.7 -293.8,257.6 -44.7,91.5 -44.7,112.8 -44.7,1756.1 V 275.8 l 53.2,104.3 c 57.5,115 159.6,202.2 281,246.9 66,23.4 483.2,27.7 2184,29.8 h 2101 v 432.1 c 0,487.5 -14.9,568.4 -140.5,713.1 -40.5,49 -127.7,112.8 -195.8,146.9 l -121.3,59.6 -1170.8,10.6 c -879.1,8.5 -1181.4,17 -1217.6,36.2 -25.5,14.9 -68.1,59.6 -95.8,95.8 l -49,70.2 -10.6,1192.1 -10.6,1192 -57.5,97.9 c -70.2,119.2 -161.8,200.1 -293.7,261.8 -93.7,42.6 -125.6,44.7 -1309.1,46.8 -666.3,2.3 -1270.8,-2 -1341.1,-10.5 z"
           id="path4"
           style="fill:#ff0000"
           inkscape:connector-curvature="0" />
        <path
           d="m 4729.8,3905.1 c 0,-985.6 4.3,-1111.2 36.2,-1177.2 42.6,-89.4 132,-149 251.2,-166 46.8,-6.4 551.3,-10.6 1123.9,-6.4 l 1036.7,6.4 -1224,1224 -1224,1224 z"
           id="path6"
           style="fill:#ff0000"
           inkscape:connector-curvature="0" />
        <path
           d="m 3222.7,60.8 c -134.1,-83 -132,-59.6 -132,-1451.7 0,-1392.1 -4.3,-1351.7 134.1,-1451.7 l 59.6,-44.7 h 3197.2 c 3503.8,0 3295.2,-8.5 3378.2,127.7 42.6,68.1 42.6,95.8 38.3,1394.3 l -6.4,1324 -78.7,72.3 -80.9,72.4 H 6513.6 c -3193,0 -3220.6,0 -3290.9,-42.6 z M 5130,-454.4 c 117.1,-29.8 323.6,-161.8 393.8,-255.4 68.1,-89.4 121.3,-210.7 121.3,-278.8 0,-29.8 -21.3,-76.6 -44.7,-108.5 -38.3,-49 -59.6,-57.5 -132,-51.1 -83,6.4 -93.7,14.9 -193.7,166 -140.5,206.5 -236.3,261.8 -440.6,251.2 -332.1,-17 -504.5,-285.2 -483.2,-749.3 17,-355.5 157.5,-551.3 430,-593.9 223.5,-34 406.6,76.6 519.4,312.9 70.3,146.9 127.7,193.7 208.6,174.6 132,-34.1 166.1,-149 102.2,-338.5 -102.2,-298 -455.5,-487.5 -849.3,-455.5 -232,21.3 -381,85.1 -523.6,225.7 -195.8,198 -278.9,423.6 -281,757.8 0,323.6 97.9,574.7 293.8,751.4 231.9,210.6 534.2,276.6 879,191.4 z m 2703.4,23.5 c 40.5,-12.8 76.7,-49 97.9,-91.5 17,-38.3 134.1,-370.4 259.7,-738.7 125.6,-368.3 229.9,-670.5 232,-674.8 4.3,-4.3 112.8,315 244.8,711 134.1,402.3 257.6,734.4 278.8,755.7 104.3,104.3 295.9,23.4 295.9,-123.5 0,-61.7 -457.7,-1345.3 -574.7,-1617.8 -87.3,-200.1 -359.8,-238.4 -472.6,-63.9 -42.6,61.7 -591.8,1556.1 -606.7,1645.5 -17,106.4 27.7,161.8 176.7,221.4 2.2,0 32,-10.7 68.2,-23.4 z m -770.6,-66 c 132,-68.1 253.3,-200.1 283.1,-306.5 42.6,-153.3 -74.5,-298 -204.4,-251.2 -34,10.6 -85.1,68.1 -134.1,146.9 -100,161.8 -174.6,208.6 -349.1,208.6 -204.3,0 -332.1,-87.3 -332.1,-225.6 0,-95.8 97.9,-170.3 291.6,-225.6 412.9,-117.1 519.4,-155.4 615.2,-219.3 142.6,-97.9 200.1,-215 200.1,-410.8 0,-270.3 -142.6,-461.9 -415.1,-557.7 -161.8,-57.5 -536.4,-51.1 -691.8,10.6 -155.4,61.7 -255.4,146.9 -327.8,283.1 -117.1,210.7 -70.2,381 102.2,381 80.9,0 136.2,-53.2 191.6,-185.2 83,-189.4 249,-281 464,-251.2 129.8,19.2 229.9,85.1 281,187.3 34.1,72.4 36.2,89.4 10.6,157.5 -44.7,112.8 -115,153.3 -417.2,234.2 -340.6,89.4 -506.6,176.7 -587.5,306.5 -115,185.2 -95.8,421.5 42.6,574.7 149,163.9 295.9,212.9 623.7,204.3 217.2,-6.3 257.6,-12.6 353.4,-61.6 z"
           id="path8"
           style="fill:#ff0000"
           inkscape:connector-curvature="0" />
      </g>
    </g>
  </g>
</svg>
